<svg preserveAspectRatio="none" width="100%" height="100%" overflow="visible" style="display: block;" viewBox="0 0 42 42" fill="none" xmlns="http://www.w3.org/2000/svg">
<g id="Annotation / hand cursor - click to chat">
<path id="Vector" d="M16.5 20.4V9.7C16.5 7.9 17.8 6.7 19.3 6.7C20.9 6.7 22.1 8 22.1 9.7V18.3" stroke="var(--stroke-0, #111111)" stroke-width="2.4" stroke-linecap="round" stroke-linejoin="round"/>
<path id="Vector_2" d="M22.1 18.2V15.1C22.1 13.5 23.3 12.3 24.8 12.3C26.3 12.3 27.5 13.5 27.5 15.1V19.4" stroke="var(--stroke-0, #111111)" stroke-width="2.4" stroke-linecap="round" stroke-linejoin="round"/>
<path id="Vector_3" d="M27.5 19.4V17.2C27.5 15.7 28.7 14.6 30.1 14.6C31.6 14.6 32.7 15.8 32.7 17.3V22.6" stroke="var(--stroke-0, #111111)" stroke-width="2.4" stroke-linecap="round" stroke-linejoin="round"/>
<path id="Vector_4" d="M16.5 21.1L13.9 18.5C12.7 17.3 10.8 17.4 9.8 18.6C8.9 19.7 9 21.3 10 22.3L18.8 31.1C20.6 32.9 23.1 34 25.7 34H27.1C31.4 34 34.9 30.5 34.9 26.2V22.4" stroke="var(--stroke-0, #111111)" stroke-width="2.4" stroke-linecap="round" stroke-linejoin="round"/>
<path id="Vector_5" d="M12.8 7.8L9.8 4.8" stroke="var(--stroke-0, #111111)" stroke-width="2" stroke-linecap="round"/>
<path id="Vector_6" d="M9.7 13.5H5.5" stroke="var(--stroke-0, #111111)" stroke-width="2" stroke-linecap="round"/>
<path id="Vector_7" d="M14.5 4.5V2.4" stroke="var(--stroke-0, #111111)" stroke-width="2" stroke-linecap="round"/>
</g>
</svg>
